HIERARCHY
ROOT Hips
{
	OFFSET 0.000000 0.000000 0.000000
	CHANNELS 6 Xposition Yposition Zposition Xrotation Yrotation Zrotation
	JOINT LeftUpLeg_virtual
	{
		OFFSET 0.000000 0.000000 0.000000
		CHANNELS 3 Xrotation Yrotation Zrotation
		JOINT LeftUpLeg
		{
			OFFSET 13.026900 -6.336304 -1.092800
			CHANNELS 3 Xrotation Yrotation Zrotation
			JOINT LeftLeg
			{
				OFFSET 0.524474 -46.096886 9.782700
				CHANNELS 3 Xrotation Yrotation Zrotation
				JOINT LeftFoot
				{
					OFFSET -0.524474 -53.427422 -12.948200
					CHANNELS 3 Xrotation Yrotation Zrotation
					JOINT LeftToeBase
					{
						OFFSET 0.192200 -14.009700 16.364100
						CHANNELS 3 Xrotation Yrotation Zrotation
						JOINT LeftToe_End
						{
							OFFSET -1.784700 -0.561700 9.474800
							CHANNELS 3 Xrotation Yrotation Zrotation
							End Site
							{
								OFFSET 0 0 0
							}
						}
					}
				}
			}
		}
	}
	JOINT RightUpLeg_virtual
	{
		OFFSET 0.000000 0.000000 0.000000
		CHANNELS 3 Xrotation Yrotation Zrotation
		JOINT RightUpLeg
		{
			OFFSET -12.883000 -6.336304 -1.092800
			CHANNELS 3 Xrotation Yrotation Zrotation
			JOINT RightLeg
			{
				OFFSET -0.524587 -46.096825 9.782800
				CHANNELS 3 Xrotation Yrotation Zrotation
				JOINT RightFoot
				{
					OFFSET 0.524587 -53.427383 -12.948300
					CHANNELS 3 Xrotation Yrotation Zrotation
					JOINT RightToeBase
					{
						OFFSET -0.192200 -14.009700 16.364100
						CHANNELS 3 Xrotation Yrotation Zrotation
						JOINT RightToe_End
						{
							OFFSET 1.784700 -0.561700 9.474800
							CHANNELS 3 Xrotation Yrotation Zrotation
							End Site
							{
								OFFSET 0 0 0
							}
						}
					}
				}
			}
		}
	}
	JOINT Spine_virtual
	{
		OFFSET 0.000000 0.000000 0.000000
		CHANNELS 3 Xrotation Yrotation Zrotation
		JOINT Spine
		{
			OFFSET 0.072000 7.257294 -0.789700
			CHANNELS 3 Xrotation Yrotation Zrotation
			JOINT Spine1
			{
				OFFSET 0.000000 12.508769 -0.658067
				CHANNELS 3 Xrotation Yrotation Zrotation
				JOINT Spine1_split
				{
					OFFSET 0.000000 12.508769 -0.658067
					CHANNELS 3 Xrotation Yrotation Zrotation
					JOINT Spine2
					{
						OFFSET 0.000000 12.508769 -0.658067
						CHANNELS 3 Xrotation Yrotation Zrotation
						JOINT Neck_virtual
						{
							OFFSET 0.000000 0.000000 0.000000
							CHANNELS 3 Xrotation Yrotation Zrotation
							JOINT Neck
							{
								OFFSET 0.000000 14.033295 7.520400
								CHANNELS 3 Xrotation Yrotation Zrotation
								JOINT Head
								{
									OFFSET 0.000000 8.198502 5.703100
									CHANNELS 3 Xrotation Yrotation Zrotation
									JOINT HeadTop_End
									{
										OFFSET 0.000000 17.760803 13.332701
										CHANNELS 3 Xrotation Yrotation Zrotation
										End Site
										{
											OFFSET 0 0 0
										}
									}
								}
							}
						}
						JOINT LeftShoulder_virtual
						{
							OFFSET 0.000000 0.000000 0.000000
							CHANNELS 3 Xrotation Yrotation Zrotation
							JOINT LeftShoulder
							{
								OFFSET 6.292450 5.785301 -0.669000
								CHANNELS 3 Xrotation Yrotation Zrotation
								JOINT LeftShoulder_split
								{
									OFFSET 6.292450 5.785301 -0.669000
									CHANNELS 3 Xrotation Yrotation Zrotation
									JOINT LeftArm
									{
										OFFSET 13.907140 -6.093903 1.965100
										CHANNELS 3 Xrotation Yrotation Zrotation
										JOINT LeftForeArm
										{
											OFFSET 34.140198 0.000000 0.000000
											CHANNELS 3 Xrotation Yrotation Zrotation
											JOINT LeftHand
											{
												OFFSET 40.960209 0.000000 0.000000
												CHANNELS 3 Xrotation Yrotation Zrotation
												End Site
												{
													OFFSET 0 0 0
												}
											}
										}
									}
								}
							}
						}
						JOINT RightShoulder_virtual
						{
							OFFSET 0.000000 0.000000 0.000000
							CHANNELS 3 Xrotation Yrotation Zrotation
							JOINT RightShoulder
							{
								OFFSET -6.292450 5.785301 -0.669000
								CHANNELS 3 Xrotation Yrotation Zrotation
								JOINT RightShoulder_split
								{
									OFFSET -6.292450 5.785301 -0.669000
									CHANNELS 3 Xrotation Yrotation Zrotation
									JOINT RightArm
									{
										OFFSET -13.907140 -6.093903 1.965100
										CHANNELS 3 Xrotation Yrotation Zrotation
										JOINT RightForeArm
										{
											OFFSET -34.140198 0.000000 0.000000
											CHANNELS 3 Xrotation Yrotation Zrotation
											JOINT RightHand
											{
												OFFSET -40.960209 0.000000 0.000000
												CHANNELS 3 Xrotation Yrotation Zrotation
												End Site
												{
													OFFSET 0 0 0
												}
											}
										}
									}
								}
							}
						}
					}
				}
			}
		}
	}
}
MOTION
Frames: 7
Frame Time: 0.03333333
5.518373 109.211777 1.446419 0.000000 0.000000 0.000000 151.631333 -86.960944 151.694677 -29.371982 35.095923 32.198622 23.123431 -7.722926 0.835602 -3.379251 3.662835 -15.521605 0.009255 -0.352301 -0.263034 0.000000 0.000000 0.000000 159.166781 -87.365817 159.755106 -26.502374 -14.668234 -18.300023 11.190806 10.141132 -3.806284 6.592885 12.854251 16.179649 3.006355 0.272316 0.742620 0.000000 0.000000 0.000000 52.695326 -88.556531 53.107279 6.053732 -0.152237 -6.625395 1.524280 0.099423 -0.916752 0.818187 0.386735 0.225947 0.000000 0.000000 0.000000 1.980939 -0.403122 -1.325574 -10.333521 4.772851 3.764387 29.495113 75.768832 -32.923288 0.000000 0.000000 0.000000 3.227831 -0.483678 -0.853203 5.530899 -4.615514 10.940727 -2.046743 -3.501435 1.414013 -38.405389 6.188168 4.295737 -4.027364 -10.415468 -0.213980 0.000000 0.000000 0.000000 2.778153 -0.336828 -1.490264 -1.447093 0.433010 -18.533150 2.290025 1.630339 6.712519 -60.502383 54.171316 53.758117 179.757055 41.458073 -178.765885 0.000000 0.000000 0.000000 
5.525593 109.216644 1.471737 0.000000 0.000000 0.000000 151.888408 -86.966299 151.959715 -29.376702 35.087413 32.211022 23.118959 -7.738399 0.837232 -3.378289 3.654363 -15.515103 0.018588 -0.350615 -0.265842 0.000000 0.000000 0.000000 159.267376 -87.393227 159.866096 -26.476013 -14.630617 -18.307043 11.140996 10.143145 -3.805854 6.594189 12.864975 16.220320 2.979856 0.269898 0.735600 0.000000 0.000000 0.000000 53.268321 -88.576325 53.704712 6.057326 -0.153556 -6.620550 1.521417 0.081557 -0.922633 0.791181 0.303426 0.218792 0.000000 0.000000 0.000000 1.988981 -0.416784 -1.324095 -10.314366 4.761632 3.762653 29.554365 75.834470 -33.010902 0.000000 0.000000 0.000000 3.230905 -0.500291 -0.850852 5.540906 -4.633932 10.975073 -1.982215 -3.480316 1.459294 -38.393637 6.211675 4.281265 -3.994158 -10.438671 -0.197590 0.000000 0.000000 0.000000 2.768668 -0.355024 -1.483979 -1.451065 0.386806 -18.566920 2.241484 1.641803 6.676622 -60.670986 54.244365 53.823827 179.740144 41.390216 -178.765844 0.000000 0.000000 0.000000 
5.527870 109.216141 1.495888 0.000000 0.000000 0.000000 152.079285 -86.981824 152.166615 -29.362348 35.052210 32.191880 23.107563 -7.760112 0.839862 -3.368136 3.650723 -15.532893 0.034402 -0.348372 -0.272150 0.000000 0.000000 0.000000 159.099940 -87.434099 159.706898 -26.441464 -14.619742 -18.329496 11.090953 10.116302 -3.807020 6.550431 12.849279 16.237219 2.986471 0.270488 0.742249 0.000000 0.000000 0.000000 52.849678 -88.570833 53.311717 6.069205 -0.155947 -6.606744 1.528846 0.045391 -0.926696 0.777130 0.247529 0.229331 0.000000 0.000000 0.000000 2.003428 -0.451469 -1.323900 -10.269410 4.720370 3.782091 29.872420 75.951786 -33.383113 0.000000 0.000000 0.000000 3.244312 -0.539952 -0.849616 5.560715 -4.646364 11.038305 -1.932131 -3.477147 1.540881 -38.395734 6.322438 4.184976 -3.962701 -10.540620 -0.183976 0.000000 0.000000 0.000000 2.772277 -0.393853 -1.474471 -1.456107 0.325573 -18.626185 2.207470 1.626968 6.658145 -60.868843 54.343594 53.884346 179.717686 41.368338 -178.780338 0.000000 0.000000 0.000000 
5.526062 109.210350 1.514206 0.000000 0.000000 0.000000 152.225218 -86.996324 152.332794 -29.328996 35.001113 32.144516 23.089598 -7.780262 0.840064 -3.349324 3.650185 -15.566367 0.048371 -0.345538 -0.280506 0.000000 0.000000 0.000000 158.682739 -87.481684 159.299532 -26.413641 -14.636245 -18.370637 11.052615 10.071086 -3.807450 6.486997 12.813117 16.242405 3.005597 0.274283 0.757085 0.000000 0.000000 0.000000 51.474266 -88.540890 51.958550 6.089371 -0.161316 -6.586455 1.544940 -0.011060 -0.928245 0.784817 0.221118 0.260430 0.000000 0.000000 0.000000 2.019330 -0.509496 -1.324547 -10.203322 4.652654 3.823576 30.428554 76.120498 -34.013109 0.000000 0.000000 0.000000 3.262148 -0.605759 -0.848889 5.589647 -4.649101 11.136754 -1.907912 -3.486002 1.628076 -38.423571 6.524122 4.022860 -3.938530 -10.696066 -0.170013 0.000000 0.000000 0.000000 2.784391 -0.455058 -1.461672 -1.463736 0.249986 -18.705711 2.181706 1.586215 6.655323 -61.053258 54.435826 53.944042 179.693275 41.400447 -178.806047 0.000000 0.000000 0.000000 
5.520428 109.202469 1.533432 0.000000 0.000000 0.000000 152.234357 -87.007157 152.361235 -29.283842 34.942254 32.078448 23.061073 -7.790079 0.835563 -3.325948 3.649681 -15.601542 0.058431 -0.342486 -0.288762 0.000000 0.000000 0.000000 158.008217 -87.534147 158.636375 -26.402023 -14.672206 -18.433887 11.033983 10.028253 -3.803301 6.428347 12.770793 16.267480 3.004276 0.280719 0.773564 0.000000 0.000000 0.000000 49.370513 -88.492600 49.874752 6.115936 -0.171079 -6.560274 1.565730 -0.090763 -0.927299 0.797829 0.229403 0.278001 0.000000 0.000000 0.000000 2.029710 -0.592874 -1.325524 -10.120565 4.560613 3.887853 31.164927 76.327378 -34.830652 0.000000 0.000000 0.000000 3.280100 -0.700494 -0.849238 5.627732 -4.639756 11.273778 -1.903721 -3.513588 1.688883 -38.484213 6.802047 3.816879 -3.924193 -10.864862 -0.153841 0.000000 0.000000 0.000000 2.797214 -0.540010 -1.445712 -1.474602 0.159614 -18.802797 2.158371 1.536398 6.656571 -61.215789 54.484013 54.017979 179.674096 41.480436 -178.840007 0.000000 0.000000 0.000000 
5.511804 109.197311 1.548237 0.000000 0.000000 0.000000 151.967351 -87.020469 152.107370 -29.226724 34.879034 32.001936 23.023154 -7.784060 0.826398 -3.301781 3.643496 -15.624799 0.068461 -0.340315 -0.295961 0.000000 0.000000 0.000000 157.105088 -87.591166 157.744954 -26.401871 -14.714741 -18.513288 11.035139 10.003065 -3.794978 6.391957 12.724714 16.325713 2.971557 0.288780 0.785979 0.000000 0.000000 0.000000 46.845453 -88.431648 47.366713 6.143741 -0.184968 -6.527772 1.585793 -0.197200 -0.925804 0.794623 0.271001 0.275541 0.000000 0.000000 0.000000 2.030394 -0.703410 -1.328194 -10.030082 4.446294 3.971214 32.018373 76.555158 -35.759957 0.000000 0.000000 0.000000 3.294413 -0.824468 -0.849855 5.675243 -4.617022 11.446024 -1.915755 -3.561179 1.727718 -38.578643 7.129753 3.581094 -3.918582 -11.013774 -0.134107 0.000000 0.000000 0.000000 2.803097 -0.650985 -1.426866 -1.490114 0.059912 -18.918780 2.140064 1.486752 6.659801 -61.358062 54.466258 54.129990 179.664288 41.586211 -178.873311 0.000000 0.000000 0.000000 
5.501858 109.200867 1.565468 0.000000 0.000000 0.000000 151.372483 -87.046069 151.518212 -29.165577 34.818819 31.926729 22.977221 -7.758314 0.813385 -3.284627 3.623305 -15.628590 0.081937 -0.339274 -0.300600 0.000000 0.000000 0.000000 156.008692 -87.655397 156.659282 -26.405440 -14.750096 -18.604167 11.043271 9.997942 -3.784028 6.375566 12.662594 16.413040 2.927730 0.296431 0.793789 0.000000 0.000000 0.000000 43.997623 -88.355983 44.530883 6.170346 -0.201111 -6.486318 1.600498 -0.332367 -0.924493 0.782222 0.329620 0.266521 0.000000 0.000000 0.000000 2.020275 -0.840610 -1.333319 -9.934940 4.319253 4.066580 32.940524 76.794576 -36.746052 0.000000 0.000000 0.000000 3.303344 -0.977004 -0.849561 5.729772 -4.580856 11.649211 -1.934122 -3.587245 1.748020 -38.693848 7.472587 3.331678 -3.924033 -11.135432 -0.110391 0.000000 0.000000 0.000000 2.798490 -0.789385 -1.408176 -1.510450 -0.045311 -19.051793 2.129131 1.441459 6.654602 -61.499945 54.383008 54.283328 179.663755 41.694408 -178.898569 0.000000 0.000000 0.000000 
